<svg width="175" height="143" viewBox="0 0 175 143" fill="none" xmlns="http://www.w3.org/2000/svg">
<path d="M174.506 87C174.506 63.9262 165.34 41.7974 149.024 25.4817C132.709 9.16605 110.58 1.74203e-06 87.5059 0C64.4321 -1.74203e-06 42.3033 9.16604 25.9876 25.4817C9.67197 41.7974 0.505924 63.9262 0.50592 87L30.0859 87C30.0859 71.7713 36.1355 57.1663 46.9039 46.3979C57.6722 35.6296 72.2772 29.58 87.5059 29.58C102.735 29.58 117.34 35.6296 128.108 46.3979C138.876 57.1663 144.926 71.7713 144.926 87L174.506 87Z" fill="#2B2B36"/>
<path d="M149.024 25.4817C136.857 13.3145 121.355 5.02859 104.479 1.67168C87.6024 -1.68523 70.1096 0.0376591 54.2124 6.62249C38.3153 13.2073 24.7277 24.3583 15.1681 38.6654C5.60838 52.9725 0.505918 69.793 0.50592 87L30.0859 87C30.0859 75.6434 33.4535 64.5418 39.7629 55.0992C46.0723 45.6565 55.0401 38.2968 65.5322 33.9508C76.0244 29.6049 87.5696 28.4677 98.708 30.6833C109.846 32.8989 120.078 38.3676 128.108 46.3979L149.024 25.4817Z" fill="#A9DFD8"/>
<path d="M67.7623 76.2486C66.3951 76.2486 65.1789 76.0266 64.1135 75.5827C63.0541 75.1329 62.2225 74.5204 61.6188 73.745C61.0152 72.9697 60.7133 72.0908 60.7133 71.1083C60.7133 70.3507 60.8849 69.6553 61.2282 69.022C61.5774 68.3828 62.0509 67.8531 62.6487 67.4329C63.2465 67.0067 63.9152 66.7345 64.6551 66.6161V66.4918C63.6844 66.2965 62.8973 65.826 62.2936 65.0803C61.6899 64.3286 61.388 63.4556 61.388 62.4613C61.388 61.5202 61.6632 60.6828 62.2137 59.9489C62.7641 59.209 63.5187 58.629 64.4775 58.2088C65.4422 57.7827 66.5372 57.5696 67.7623 57.5696C68.9875 57.5696 70.0794 57.7827 71.0382 58.2088C72.003 58.6349 72.7605 59.2179 73.311 59.9577C73.8614 60.6916 74.1396 61.5262 74.1455 62.4613C74.1396 63.4615 73.8318 64.3345 73.2222 65.0803C72.6126 65.826 71.8313 66.2965 70.8784 66.4918V66.6161C71.6064 66.7345 72.2663 67.0067 72.8582 67.4329C73.456 67.8531 73.9295 68.3828 74.2786 69.022C74.6338 69.6553 74.8143 70.3507 74.8202 71.1083C74.8143 72.0908 74.5095 72.9697 73.9058 73.745C73.3021 74.5204 72.4676 75.1329 71.4022 75.5827C70.3428 76.0266 69.1295 76.2486 67.7623 76.2486ZM67.7623 73.4254C68.3719 73.4254 68.9046 73.3159 69.3603 73.0969C69.8161 72.872 70.1712 72.5643 70.4257 72.1737C70.6861 71.7771 70.8163 71.3214 70.8163 70.8065C70.8163 70.2797 70.6831 69.8151 70.4168 69.4126C70.1505 69.0043 69.7894 68.6847 69.3337 68.4538C68.878 68.2171 68.3542 68.0987 67.7623 68.0987C67.1764 68.0987 66.6526 68.2171 66.1909 68.4538C65.7293 68.6847 65.3653 69.0043 65.099 69.4126C64.8385 69.8151 64.7083 70.2797 64.7083 70.8065C64.7083 71.3214 64.8356 71.7771 65.0901 72.1737C65.3446 72.5643 65.7027 72.872 66.1643 73.0969C66.6259 73.3159 67.1586 73.4254 67.7623 73.4254ZM67.7623 65.3022C68.2713 65.3022 68.7241 65.1986 69.1206 64.9915C69.5172 64.7843 69.8279 64.4973 70.0528 64.1303C70.2777 63.7634 70.3902 63.3402 70.3902 62.8608C70.3902 62.3873 70.2777 61.973 70.0528 61.6179C69.8279 61.2569 69.5201 60.9757 69.1295 60.7745C68.7389 60.5674 68.2831 60.4638 67.7623 60.4638C67.2474 60.4638 66.7917 60.5674 66.3951 60.7745C65.9986 60.9757 65.6879 61.2569 65.463 61.6179C65.244 61.973 65.1345 62.3873 65.1345 62.8608C65.1345 63.3402 65.2469 63.7634 65.4718 64.1303C65.6967 64.4973 66.0075 64.7843 66.404 64.9915C66.8005 65.1986 67.2533 65.3022 67.7623 65.3022ZM84.6369 76.3995C83.1099 76.3936 81.796 76.0178 80.6951 75.272C79.6002 74.5263 78.7568 73.4461 78.1649 72.0316C77.579 70.6171 77.289 68.9155 77.2949 66.9268C77.2949 64.9441 77.5879 63.2544 78.1738 61.8576C78.7657 60.4608 79.6091 59.3984 80.704 58.6705C81.8048 57.9366 83.1158 57.5696 84.6369 57.5696C86.1579 57.5696 87.4659 57.9366 88.5609 58.6705C89.6617 59.4044 90.5081 60.4697 91.0999 61.8665C91.6918 63.2573 91.9848 64.9441 91.9788 66.9268C91.9788 68.9214 91.6829 70.6259 91.0911 72.0405C90.5051 73.455 89.6647 74.5352 88.5698 75.2809C87.4748 76.0266 86.1639 76.3995 84.6369 76.3995ZM84.6369 73.2124C85.6785 73.2124 86.5101 72.6886 87.1315 71.641C87.753 70.5934 88.0608 69.022 88.0548 66.9268C88.0548 65.5478 87.9128 64.3996 87.6287 63.4822C87.3505 62.5649 86.954 61.8754 86.4391 61.4137C85.9301 60.9521 85.3293 60.7212 84.6369 60.7212C83.6011 60.7212 82.7725 61.2391 82.1511 62.2749C81.5296 63.3106 81.2159 64.8613 81.21 66.9268C81.21 68.3236 81.3491 69.4896 81.6273 70.4247C81.9114 71.3539 82.3109 72.0523 82.8258 72.5199C83.3407 72.9815 83.9444 73.2124 84.6369 73.2124ZM104.672 72.5909V71.6321C104.672 70.9041 104.826 70.2353 105.134 69.6257C105.447 69.0102 105.9 68.5189 106.492 68.152C107.09 67.7791 107.818 67.5927 108.676 67.5927C109.546 67.5927 110.277 67.7762 110.869 68.1431C111.466 68.5101 111.916 69.0013 112.218 69.6168C112.526 70.2264 112.68 70.8982 112.68 71.6321V72.5909C112.68 73.3189 112.526 73.9906 112.218 74.6062C111.91 75.2158 111.458 75.7041 110.86 76.071C110.262 76.4439 109.534 76.6303 108.676 76.6303C107.806 76.6303 107.075 76.4439 106.483 76.071C105.891 75.7041 105.441 75.2158 105.134 74.6062C104.826 73.9906 104.672 73.3189 104.672 72.5909ZM107.255 71.6321V72.5909C107.255 73.0111 107.356 73.4077 107.557 73.7805C107.764 74.1534 108.137 74.3398 108.676 74.3398C109.214 74.3398 109.581 74.1564 109.777 73.7894C109.978 73.4225 110.079 73.023 110.079 72.5909V71.6321C110.079 71.2 109.984 70.7976 109.794 70.4247C109.605 70.0518 109.232 69.8654 108.676 69.8654C108.143 69.8654 107.773 70.0518 107.566 70.4247C107.359 70.7976 107.255 71.2 107.255 71.6321ZM95.3413 62.1861V61.2273C95.3413 60.4934 95.4982 59.8216 95.8119 59.212C96.1255 58.5965 96.5783 58.1052 97.1702 57.7383C97.7679 57.3713 98.49 57.1879 99.3364 57.1879C100.212 57.1879 100.946 57.3713 101.538 57.7383C102.13 58.1052 102.58 58.5965 102.887 59.212C103.195 59.8216 103.349 60.4934 103.349 61.2273V62.1861C103.349 62.92 103.192 63.5917 102.879 64.2013C102.571 64.811 102.118 65.2992 101.52 65.6662C100.928 66.0272 100.2 66.2077 99.3364 66.2077C98.4722 66.2077 97.7413 66.0243 97.1435 65.6573C96.5517 65.2844 96.1019 64.7962 95.7941 64.1925C95.4922 63.5829 95.3413 62.9141 95.3413 62.1861ZM97.9425 61.2273V62.1861C97.9425 62.6181 98.0431 63.0176 98.2444 63.3846C98.4515 63.7515 98.8155 63.935 99.3364 63.935C99.8809 63.935 100.251 63.7515 100.446 63.3846C100.647 63.0176 100.748 62.6181 100.748 62.1861V61.2273C100.748 60.7952 100.653 60.3928 100.464 60.0199C100.274 59.647 99.8986 59.4606 99.3364 59.4606C98.8096 59.4606 98.4456 59.65 98.2444 60.0288C98.0431 60.4076 97.9425 60.8071 97.9425 61.2273ZM96.5132 76L109.013 57.8182H111.339L98.8392 76H96.5132Z" fill="white"/>
</svg>
