<svg width="453" height="164" viewBox="0 0 453 164" fill="none" xmlns="http://www.w3.org/2000/svg">
<path d="M33.4602 129L37.9552 119L46.4458 129L50.4414 122.5L56.4348 129L62.4281 122.5L71.9176 129H84.4038L100.886 94.5L113.372 26L121.862 81L135.347 88L143.838 81L154.326 92L166.813 88L175.303 59L181.796 68.5L193.283 3.00002L198.777 19L212.762 30L221.252 21.5L226.247 7.50001L232.24 21.5L244.726 30L258.212 76.5L267.701 37.5L278.689 26L290.176 37.5L298.667 19L304.161 30L319.144 40.5L336.125 37.5L348.612 21.5L366.592 81L379.078 88L389.566 68.5L395.56 81L408.545 88L414.039 106L422.03 84L435.515 68.5L443.507 88L450.998 59" stroke="#A9DFD8" stroke-width="3"/>
<path d="M38.4545 121.5L32.4612 133.5L452.497 134.5V59.5L444.006 92.5L435.016 71.5L423.529 84.5L414.039 109.5L407.546 89L394.561 82L389.566 71.5L379.577 89.5L365.093 82L348.112 24.5L337.124 38.5L318.645 42L303.162 31L298.667 22.5L290.676 40L278.689 28L269.199 38L258.711 81L243.228 31L231.241 22.5L226.247 11.5L222.751 22L212.762 32L197.778 20L193.783 8.99998L182.795 72L175.803 62.5L167.811 89L153.827 93.5L143.838 83L135.847 89.5L120.863 82L113.372 34.5L102.384 95L85.4026 130.5H71.4181L62.428 124L56.4346 130.5L50.4413 125L46.4457 131L38.4545 121.5Z" fill="url(#paint0_linear_1228_14)"/>
<path d="M32.0517 153.728H33.3585V158.841C33.3562 159.31 33.2567 159.714 33.0602 160.052C32.8637 160.388 32.5891 160.648 32.2364 160.83C31.886 161.01 31.4776 161.1 31.0112 161.1C30.5851 161.1 30.2016 161.024 29.8607 160.873C29.5221 160.719 29.2534 160.491 29.0546 160.191C28.8557 159.89 28.7563 159.516 28.7563 159.069H30.0666C30.069 159.265 30.1116 159.434 30.1945 159.576C30.2797 159.718 30.3969 159.827 30.546 159.903C30.6952 159.979 30.8668 160.017 31.061 160.017C31.2717 160.017 31.4504 159.973 31.5972 159.885C31.744 159.795 31.8552 159.663 31.931 159.488C32.0091 159.312 32.0494 159.097 32.0517 158.841V153.728ZM36.3007 161.11C35.955 161.11 35.6437 161.049 35.3667 160.926C35.0921 160.8 34.8743 160.616 34.7133 160.372C34.5547 160.128 34.4754 159.827 34.4754 159.47C34.4754 159.162 34.5322 158.908 34.6458 158.706C34.7595 158.505 34.9145 158.344 35.111 158.223C35.3075 158.103 35.5289 158.011 35.7751 157.95C36.0237 157.886 36.2805 157.84 36.5457 157.811C36.8653 157.778 37.1245 157.749 37.3234 157.723C37.5222 157.694 37.6667 157.652 37.7566 157.595C37.849 157.536 37.8951 157.444 37.8951 157.321V157.3C37.8951 157.033 37.8158 156.825 37.6572 156.679C37.4986 156.532 37.2701 156.458 36.9718 156.458C36.657 156.458 36.4072 156.527 36.2225 156.664C36.0402 156.802 35.9171 156.964 35.8532 157.151L34.6529 156.98C34.7476 156.649 34.9039 156.372 35.1217 156.15C35.3395 155.925 35.6058 155.757 35.9207 155.645C36.2356 155.532 36.5836 155.475 36.9647 155.475C37.2275 155.475 37.4891 155.506 37.7495 155.567C38.0099 155.629 38.2479 155.73 38.4633 155.873C38.6787 156.012 38.8516 156.203 38.9818 156.444C39.1143 156.686 39.1806 156.988 39.1806 157.35V161H37.9448V160.251H37.9022C37.8241 160.403 37.714 160.545 37.572 160.677C37.4323 160.807 37.2559 160.913 37.0428 160.993C36.8321 161.071 36.5847 161.11 36.3007 161.11ZM36.6345 160.166C36.8925 160.166 37.1162 160.115 37.3056 160.013C37.495 159.909 37.6406 159.772 37.7424 159.601C37.8466 159.431 37.8987 159.245 37.8987 159.044V158.401C37.8584 158.434 37.7898 158.465 37.6927 158.493C37.598 158.522 37.4915 158.547 37.3731 158.568C37.2547 158.589 37.1375 158.608 37.0215 158.625C36.9055 158.641 36.8049 158.655 36.7197 158.667C36.5279 158.693 36.3563 158.736 36.2048 158.795C36.0533 158.854 35.9337 158.937 35.8461 159.044C35.7585 159.148 35.7147 159.283 35.7147 159.449C35.7147 159.685 35.8011 159.864 35.974 159.985C36.1468 160.105 36.3669 160.166 36.6345 160.166ZM41.7588 157.804V161H40.4732V155.546H41.7019V156.473H41.7659C41.8913 156.167 42.0914 155.925 42.366 155.745C42.643 155.565 42.9851 155.475 43.3923 155.475C43.7687 155.475 44.0966 155.555 44.3759 155.716C44.6577 155.877 44.8755 156.11 45.0293 156.416C45.1856 156.721 45.2625 157.092 45.2602 157.527V161H43.9747V157.726C43.9747 157.362 43.88 157.076 43.6906 156.87C43.5035 156.664 43.2443 156.561 42.9129 156.561C42.688 156.561 42.4879 156.611 42.3127 156.711C42.1399 156.808 42.0038 156.949 41.9043 157.133C41.8073 157.318 41.7588 157.542 41.7588 157.804Z" fill="white"/>
<path d="M65.1824 161V153.728H69.8415V154.832H66.4999V156.806H69.5219V157.911H66.4999V161H65.1824ZM72.9993 161.107C72.4525 161.107 71.9802 160.993 71.5824 160.766C71.1871 160.536 70.8829 160.212 70.6698 159.793C70.4567 159.372 70.3502 158.876 70.3502 158.305C70.3502 157.744 70.4567 157.252 70.6698 156.828C70.8852 156.402 71.1859 156.07 71.5718 155.833C71.9577 155.594 72.411 155.475 72.9319 155.475C73.268 155.475 73.5853 155.529 73.8836 155.638C74.1842 155.745 74.4494 155.91 74.679 156.135C74.911 156.36 75.0933 156.647 75.2259 156.995C75.3585 157.34 75.4248 157.752 75.4248 158.23V158.625H70.9539V157.758H74.1925C74.1902 157.512 74.1369 157.293 74.0327 157.101C73.9286 156.907 73.783 156.754 73.5959 156.643C73.4113 156.532 73.1958 156.476 72.9496 156.476C72.6868 156.476 72.456 156.54 72.2572 156.668C72.0583 156.793 71.9032 156.959 71.792 157.165C71.6831 157.369 71.6274 157.592 71.6251 157.836V158.593C71.6251 158.91 71.6831 159.182 71.7991 159.409C71.9151 159.634 72.0772 159.807 72.2856 159.928C72.4939 160.046 72.7377 160.105 73.0171 160.105C73.2041 160.105 73.3734 160.079 73.5249 160.027C73.6764 159.973 73.8078 159.894 73.9191 159.789C74.0304 159.685 74.1144 159.556 74.1712 159.402L75.3715 159.537C75.2957 159.855 75.1513 160.132 74.9383 160.368C74.7276 160.603 74.4577 160.785 74.1286 160.915C73.7995 161.043 73.4231 161.107 72.9993 161.107ZM76.5691 161V153.728H77.8546V156.448H77.9079C77.9742 156.315 78.0677 156.174 78.1884 156.025C78.3092 155.874 78.4725 155.745 78.6785 155.638C78.8845 155.529 79.1472 155.475 79.4668 155.475C79.8882 155.475 80.2682 155.583 80.6068 155.798C80.9477 156.011 81.2176 156.327 81.4164 156.746C81.6177 157.163 81.7183 157.674 81.7183 158.28C81.7183 158.879 81.62 159.388 81.4235 159.807C81.227 160.226 80.9595 160.546 80.621 160.766C80.2824 160.986 79.8989 161.096 79.4704 161.096C79.1579 161.096 78.8987 161.044 78.6927 160.94C78.4867 160.836 78.321 160.71 78.1955 160.564C78.0724 160.414 77.9766 160.274 77.9079 160.141H77.8333V161H76.5691ZM77.8298 158.273C77.8298 158.626 77.8795 158.935 77.9789 159.2C78.0807 159.465 78.2263 159.672 78.4157 159.821C78.6075 159.968 78.8395 160.042 79.1117 160.042C79.3958 160.042 79.6338 159.966 79.8255 159.814C80.0173 159.66 80.1617 159.451 80.2588 159.186C80.3582 158.918 80.4079 158.614 80.4079 158.273C80.4079 157.935 80.3594 157.634 80.2623 157.371C80.1652 157.108 80.0208 156.902 79.8291 156.753C79.6373 156.604 79.3982 156.529 79.1117 156.529C78.8371 156.529 78.6039 156.602 78.4122 156.746C78.2204 156.891 78.0748 157.093 77.9754 157.353C77.8783 157.614 77.8298 157.92 77.8298 158.273Z" fill="white"/>
<path d="M101.182 153.728H102.795L104.954 158.998H105.039L107.198 153.728H108.81V161H107.546V156.004H107.479L105.469 160.979H104.524L102.514 155.993H102.447V161H101.182V153.728ZM111.758 161.11C111.412 161.11 111.101 161.049 110.824 160.926C110.549 160.8 110.331 160.616 110.17 160.372C110.012 160.128 109.932 159.827 109.932 159.47C109.932 159.162 109.989 158.908 110.103 158.706C110.216 158.505 110.372 158.344 110.568 158.223C110.765 158.103 110.986 158.011 111.232 157.95C111.481 157.886 111.738 157.84 112.003 157.811C112.322 157.778 112.582 157.749 112.78 157.723C112.979 157.694 113.124 157.652 113.214 157.595C113.306 157.536 113.352 157.444 113.352 157.321V157.3C113.352 157.033 113.273 156.825 113.114 156.679C112.956 156.532 112.727 156.458 112.429 156.458C112.114 156.458 111.864 156.527 111.68 156.664C111.497 156.802 111.374 156.964 111.31 157.151L110.11 156.98C110.205 156.649 110.361 156.372 110.579 156.15C110.797 155.925 111.063 155.757 111.378 155.645C111.693 155.532 112.041 155.475 112.422 155.475C112.685 155.475 112.946 155.506 113.207 155.567C113.467 155.629 113.705 155.73 113.92 155.873C114.136 156.012 114.309 156.203 114.439 156.444C114.571 156.686 114.638 156.988 114.638 157.35V161H113.402V160.251H113.359C113.281 160.403 113.171 160.545 113.029 160.677C112.889 160.807 112.713 160.913 112.5 160.993C112.289 161.071 112.042 161.11 111.758 161.11ZM112.091 160.166C112.35 160.166 112.573 160.115 112.763 160.013C112.952 159.909 113.098 159.772 113.199 159.601C113.304 159.431 113.356 159.245 113.356 159.044V158.401C113.315 158.434 113.247 158.465 113.15 158.493C113.055 158.522 112.949 158.547 112.83 158.568C112.712 158.589 112.595 158.608 112.479 158.625C112.363 158.641 112.262 158.655 112.177 158.667C111.985 158.693 111.813 158.736 111.662 158.795C111.51 158.854 111.391 158.937 111.303 159.044C111.216 159.148 111.172 159.283 111.172 159.449C111.172 159.685 111.258 159.864 111.431 159.985C111.604 160.105 111.824 160.166 112.091 160.166ZM115.93 161V155.546H117.177V156.455H117.234C117.333 156.14 117.503 155.897 117.745 155.727C117.989 155.554 118.267 155.468 118.579 155.468C118.65 155.468 118.73 155.471 118.817 155.478C118.907 155.483 118.982 155.491 119.041 155.503V156.686C118.987 156.667 118.9 156.65 118.782 156.636C118.666 156.619 118.553 156.611 118.444 156.611C118.21 156.611 117.999 156.662 117.812 156.764C117.628 156.863 117.482 157.002 117.376 157.179C117.269 157.357 117.216 157.562 117.216 157.794V161H115.93Z" fill="white"/>
<path d="M139.116 161H137.71L140.27 153.728H141.897L144.461 161H143.055L141.112 155.219H141.055L139.116 161ZM139.163 158.149H142.998V159.207H139.163V158.149ZM145.362 163.046V155.546H146.626V156.448H146.701C146.767 156.315 146.86 156.174 146.981 156.025C147.102 155.874 147.265 155.745 147.471 155.638C147.677 155.529 147.94 155.475 148.26 155.475C148.681 155.475 149.061 155.583 149.4 155.798C149.74 156.011 150.01 156.327 150.209 156.746C150.41 157.163 150.511 157.674 150.511 158.28C150.511 158.879 150.413 159.388 150.216 159.807C150.02 160.226 149.752 160.546 149.414 160.766C149.075 160.986 148.692 161.096 148.263 161.096C147.951 161.096 147.691 161.044 147.485 160.94C147.28 160.836 147.114 160.71 146.988 160.564C146.865 160.414 146.769 160.274 146.701 160.141H146.647V163.046H145.362ZM146.623 158.273C146.623 158.626 146.672 158.935 146.772 159.2C146.874 159.465 147.019 159.672 147.209 159.821C147.4 159.968 147.632 160.042 147.905 160.042C148.189 160.042 148.427 159.966 148.618 159.814C148.81 159.66 148.954 159.451 149.052 159.186C149.151 158.918 149.201 158.614 149.201 158.273C149.201 157.935 149.152 157.634 149.055 157.371C148.958 157.108 148.814 156.902 148.622 156.753C148.43 156.604 148.191 156.529 147.905 156.529C147.63 156.529 147.397 156.602 147.205 156.746C147.013 156.891 146.868 157.093 146.768 157.353C146.671 157.614 146.623 157.92 146.623 158.273ZM151.612 161V155.546H152.858V156.455H152.915C153.015 156.14 153.185 155.897 153.427 155.727C153.67 155.554 153.949 155.468 154.261 155.468C154.332 155.468 154.411 155.471 154.499 155.478C154.589 155.483 154.664 155.491 154.723 155.503V156.686C154.668 156.667 154.582 156.65 154.463 156.636C154.347 156.619 154.235 156.611 154.126 156.611C153.892 156.611 153.681 156.662 153.494 156.764C153.309 156.863 153.164 157.002 153.057 157.179C152.951 157.357 152.897 157.562 152.897 157.794V161H151.612Z" fill="white"/>
<path d="M174.182 153.728H175.795L177.954 158.998H178.039L180.198 153.728H181.81V161H180.546V156.004H180.479L178.469 160.979H177.524L175.514 155.993H175.447V161H174.182V153.728ZM184.758 161.11C184.412 161.11 184.101 161.049 183.824 160.926C183.549 160.8 183.331 160.616 183.17 160.372C183.012 160.128 182.932 159.827 182.932 159.47C182.932 159.162 182.989 158.908 183.103 158.706C183.216 158.505 183.372 158.344 183.568 158.223C183.765 158.103 183.986 158.011 184.232 157.95C184.481 157.886 184.738 157.84 185.003 157.811C185.322 157.778 185.582 157.749 185.78 157.723C185.979 157.694 186.124 157.652 186.214 157.595C186.306 157.536 186.352 157.444 186.352 157.321V157.3C186.352 157.033 186.273 156.825 186.114 156.679C185.956 156.532 185.727 156.458 185.429 156.458C185.114 156.458 184.864 156.527 184.68 156.664C184.497 156.802 184.374 156.964 184.31 157.151L183.11 156.98C183.205 156.649 183.361 156.372 183.579 156.15C183.797 155.925 184.063 155.757 184.378 155.645C184.693 155.532 185.041 155.475 185.422 155.475C185.685 155.475 185.946 155.506 186.207 155.567C186.467 155.629 186.705 155.73 186.92 155.873C187.136 156.012 187.309 156.203 187.439 156.444C187.571 156.686 187.638 156.988 187.638 157.35V161H186.402V160.251H186.359C186.281 160.403 186.171 160.545 186.029 160.677C185.889 160.807 185.713 160.913 185.5 160.993C185.289 161.071 185.042 161.11 184.758 161.11ZM185.091 160.166C185.35 160.166 185.573 160.115 185.763 160.013C185.952 159.909 186.098 159.772 186.199 159.601C186.304 159.431 186.356 159.245 186.356 159.044V158.401C186.315 158.434 186.247 158.465 186.15 158.493C186.055 158.522 185.949 158.547 185.83 158.568C185.712 158.589 185.595 158.608 185.479 158.625C185.363 158.641 185.262 158.655 185.177 158.667C184.985 158.693 184.813 158.736 184.662 158.795C184.51 158.854 184.391 158.937 184.303 159.044C184.216 159.148 184.172 159.283 184.172 159.449C184.172 159.685 184.258 159.864 184.431 159.985C184.604 160.105 184.824 160.166 185.091 160.166ZM189.534 163.046C189.359 163.046 189.197 163.032 189.047 163.003C188.901 162.977 188.783 162.946 188.696 162.911L188.994 161.909C189.181 161.964 189.348 161.99 189.495 161.988C189.642 161.985 189.771 161.939 189.882 161.849C189.996 161.761 190.091 161.615 190.17 161.409L190.28 161.114L188.302 155.546H189.665L190.922 159.665H190.979L192.24 155.546H193.607L191.423 161.661C191.321 161.95 191.186 162.197 191.018 162.403C190.85 162.611 190.644 162.77 190.4 162.879C190.159 162.99 189.87 163.046 189.534 163.046Z" fill="white"/>
<path d="M216.052 153.728H217.359V158.841C217.356 159.31 217.257 159.714 217.06 160.052C216.864 160.388 216.589 160.648 216.236 160.83C215.886 161.01 215.478 161.1 215.011 161.1C214.585 161.1 214.202 161.024 213.861 160.873C213.522 160.719 213.253 160.491 213.055 160.191C212.856 159.89 212.756 159.516 212.756 159.069H214.067C214.069 159.265 214.112 159.434 214.194 159.576C214.28 159.718 214.397 159.827 214.546 159.903C214.695 159.979 214.867 160.017 215.061 160.017C215.272 160.017 215.45 159.973 215.597 159.885C215.744 159.795 215.855 159.663 215.931 159.488C216.009 159.312 216.049 159.097 216.052 158.841V153.728ZM222.208 158.706V155.546H223.493V161H222.247V160.031H222.19C222.067 160.336 221.864 160.586 221.583 160.78C221.303 160.974 220.959 161.071 220.549 161.071C220.192 161.071 219.876 160.992 219.601 160.833C219.329 160.672 219.116 160.439 218.962 160.134C218.808 159.826 218.731 159.454 218.731 159.019V155.546H220.017V158.82C220.017 159.166 220.111 159.44 220.301 159.644C220.49 159.847 220.739 159.949 221.046 159.949C221.236 159.949 221.419 159.903 221.597 159.811C221.774 159.718 221.92 159.581 222.034 159.399C222.15 159.214 222.208 158.983 222.208 158.706ZM226.101 157.804V161H224.815V155.546H226.044V156.473H226.108C226.233 156.167 226.433 155.925 226.708 155.745C226.985 155.565 227.327 155.475 227.734 155.475C228.11 155.475 228.438 155.555 228.718 155.716C228.999 155.877 229.217 156.11 229.371 156.416C229.527 156.721 229.604 157.092 229.602 157.527V161H228.316V157.726C228.316 157.362 228.222 157.076 228.032 156.87C227.845 156.664 227.586 156.561 227.255 156.561C227.03 156.561 226.83 156.611 226.655 156.711C226.482 156.808 226.346 156.949 226.246 157.133C226.149 157.318 226.101 157.542 226.101 157.804Z" fill="white"/>
<path d="M252.052 153.728H253.359V158.841C253.356 159.31 253.257 159.714 253.06 160.052C252.864 160.388 252.589 160.648 252.236 160.83C251.886 161.01 251.478 161.1 251.011 161.1C250.585 161.1 250.202 161.024 249.861 160.873C249.522 160.719 249.253 160.491 249.055 160.191C248.856 159.89 248.756 159.516 248.756 159.069H250.067C250.069 159.265 250.112 159.434 250.194 159.576C250.28 159.718 250.397 159.827 250.546 159.903C250.695 159.979 250.867 160.017 251.061 160.017C251.272 160.017 251.45 159.973 251.597 159.885C251.744 159.795 251.855 159.663 251.931 159.488C252.009 159.312 252.049 159.097 252.052 158.841V153.728ZM258.208 158.706V155.546H259.493V161H258.247V160.031H258.19C258.067 160.336 257.864 160.586 257.583 160.78C257.303 160.974 256.959 161.071 256.549 161.071C256.192 161.071 255.876 160.992 255.601 160.833C255.329 160.672 255.116 160.439 254.962 160.134C254.808 159.826 254.731 159.454 254.731 159.019V155.546H256.017V158.82C256.017 159.166 256.111 159.44 256.301 159.644C256.49 159.847 256.739 159.949 257.046 159.949C257.236 159.949 257.419 159.903 257.597 159.811C257.774 159.718 257.92 159.581 258.034 159.399C258.15 159.214 258.208 158.983 258.208 158.706ZM262.101 153.728V161H260.815V153.728H262.101Z" fill="white"/>
<path d="M283.116 161H281.71L284.27 153.728H285.897L288.461 161H287.055L285.112 155.219H285.055L283.116 161ZM283.163 158.149H286.998V159.207H283.163V158.149ZM292.838 158.706V155.546H294.124V161H292.878V160.031H292.821C292.698 160.336 292.495 160.586 292.213 160.78C291.934 160.974 291.59 161.071 291.18 161.071C290.823 161.071 290.507 160.992 290.232 160.833C289.96 160.672 289.747 160.439 289.593 160.134C289.439 159.826 289.362 159.454 289.362 159.019V155.546H290.647V158.82C290.647 159.166 290.742 159.44 290.932 159.644C291.121 159.847 291.369 159.949 291.677 159.949C291.867 159.949 292.05 159.903 292.228 159.811C292.405 159.718 292.551 159.581 292.664 159.399C292.78 159.214 292.838 158.983 292.838 158.706ZM297.818 163.159C297.356 163.159 296.96 163.097 296.628 162.971C296.297 162.848 296.031 162.682 295.829 162.474C295.628 162.266 295.489 162.035 295.41 161.782L296.568 161.501C296.62 161.608 296.696 161.713 296.795 161.817C296.895 161.924 297.029 162.011 297.197 162.08C297.367 162.151 297.581 162.186 297.839 162.186C298.204 162.186 298.506 162.098 298.745 161.92C298.984 161.745 299.104 161.456 299.104 161.054V160.02H299.04C298.973 160.153 298.876 160.289 298.748 160.429C298.623 160.568 298.456 160.685 298.248 160.78C298.042 160.875 297.783 160.922 297.47 160.922C297.051 160.922 296.671 160.824 296.33 160.627C295.992 160.429 295.722 160.133 295.52 159.74C295.322 159.344 295.222 158.85 295.222 158.255C295.222 157.656 295.322 157.151 295.52 156.739C295.722 156.325 295.993 156.011 296.334 155.798C296.675 155.583 297.055 155.475 297.474 155.475C297.793 155.475 298.056 155.529 298.262 155.638C298.47 155.745 298.636 155.874 298.759 156.025C298.882 156.174 298.976 156.315 299.04 156.448H299.111V155.546H300.378V161.089C300.378 161.556 300.267 161.941 300.045 162.247C299.822 162.552 299.518 162.781 299.132 162.932C298.746 163.084 298.308 163.159 297.818 163.159ZM297.829 159.914C298.101 159.914 298.333 159.847 298.525 159.715C298.716 159.582 298.862 159.392 298.962 159.143C299.061 158.895 299.111 158.596 299.111 158.248C299.111 157.905 299.061 157.604 298.962 157.346C298.864 157.088 298.72 156.888 298.528 156.746C298.339 156.602 298.106 156.529 297.829 156.529C297.542 156.529 297.303 156.604 297.111 156.753C296.92 156.902 296.775 157.107 296.678 157.368C296.581 157.626 296.533 157.919 296.533 158.248C296.533 158.582 296.581 158.874 296.678 159.125C296.778 159.374 296.923 159.568 297.115 159.708C297.309 159.845 297.547 159.914 297.829 159.914Z" fill="white"/>
<path d="M324.135 155.727C324.102 155.417 323.962 155.175 323.716 155.002C323.472 154.83 323.155 154.743 322.764 154.743C322.489 154.743 322.254 154.785 322.057 154.868C321.861 154.95 321.711 155.063 321.606 155.205C321.502 155.347 321.449 155.509 321.447 155.691C321.447 155.843 321.481 155.974 321.55 156.086C321.621 156.197 321.716 156.292 321.837 156.37C321.958 156.445 322.092 156.509 322.239 156.561C322.385 156.614 322.533 156.657 322.682 156.693L323.364 156.863C323.639 156.927 323.903 157.014 324.156 157.123C324.412 157.231 324.64 157.369 324.841 157.534C325.045 157.7 325.206 157.9 325.324 158.135C325.443 158.369 325.502 158.644 325.502 158.958C325.502 159.385 325.393 159.76 325.175 160.084C324.957 160.406 324.643 160.658 324.231 160.841C323.821 161.02 323.325 161.11 322.743 161.11C322.177 161.11 321.686 161.023 321.269 160.848C320.855 160.672 320.53 160.417 320.296 160.081C320.064 159.744 319.939 159.335 319.92 158.852H321.216C321.235 159.105 321.313 159.316 321.45 159.484C321.587 159.652 321.766 159.778 321.986 159.86C322.209 159.943 322.457 159.985 322.732 159.985C323.019 159.985 323.27 159.942 323.485 159.857C323.703 159.769 323.873 159.649 323.996 159.495C324.119 159.338 324.182 159.156 324.185 158.948C324.182 158.758 324.127 158.602 324.018 158.479C323.909 158.354 323.756 158.249 323.56 158.167C323.365 158.081 323.138 158.006 322.878 157.939L322.05 157.726C321.451 157.572 320.978 157.339 320.63 157.027C320.284 156.712 320.111 156.294 320.111 155.773C320.111 155.345 320.227 154.969 320.459 154.647C320.694 154.325 321.012 154.076 321.415 153.898C321.817 153.718 322.273 153.628 322.782 153.628C323.298 153.628 323.75 153.718 324.138 153.898C324.529 154.076 324.836 154.323 325.058 154.64C325.281 154.955 325.395 155.317 325.403 155.727H324.135ZM329.034 161.107C328.488 161.107 328.015 160.993 327.618 160.766C327.222 160.536 326.918 160.212 326.705 159.793C326.492 159.372 326.385 158.876 326.385 158.305C326.385 157.744 326.492 157.252 326.705 156.828C326.92 156.402 327.221 156.07 327.607 155.833C327.993 155.594 328.446 155.475 328.967 155.475C329.303 155.475 329.62 155.529 329.919 155.638C330.219 155.745 330.485 155.91 330.714 156.135C330.946 156.36 331.128 156.647 331.261 156.995C331.394 157.34 331.46 157.752 331.46 158.23V158.625H326.989V157.758H330.228C330.225 157.512 330.172 157.293 330.068 157.101C329.964 156.907 329.818 156.754 329.631 156.643C329.446 156.532 329.231 156.476 328.985 156.476C328.722 156.476 328.491 156.54 328.292 156.668C328.093 156.793 327.938 156.959 327.827 157.165C327.718 157.369 327.663 157.592 327.66 157.836V158.593C327.66 158.91 327.718 159.182 327.834 159.409C327.95 159.634 328.112 159.807 328.321 159.928C328.529 160.046 328.773 160.105 329.052 160.105C329.239 160.105 329.409 160.079 329.56 160.027C329.712 159.973 329.843 159.894 329.954 159.789C330.066 159.685 330.15 159.556 330.206 159.402L331.407 159.537C331.331 159.855 331.186 160.132 330.973 160.368C330.763 160.603 330.493 160.785 330.164 160.915C329.835 161.043 329.458 161.107 329.034 161.107ZM332.547 163.046V155.546H333.812V156.448H333.886C333.953 156.315 334.046 156.174 334.167 156.025C334.288 155.874 334.451 155.745 334.657 155.638C334.863 155.529 335.126 155.475 335.445 155.475C335.867 155.475 336.247 155.583 336.585 155.798C336.926 156.011 337.196 156.327 337.395 156.746C337.596 157.163 337.697 157.674 337.697 158.28C337.697 158.879 337.598 159.388 337.402 159.807C337.205 160.226 336.938 160.546 336.599 160.766C336.261 160.986 335.877 161.096 335.449 161.096C335.136 161.096 334.877 161.044 334.671 160.94C334.465 160.836 334.299 160.71 334.174 160.564C334.051 160.414 333.955 160.274 333.886 160.141H333.833V163.046H332.547ZM333.808 158.273C333.808 158.626 333.858 158.935 333.957 159.2C334.059 159.465 334.205 159.672 334.394 159.821C334.586 159.968 334.818 160.042 335.09 160.042C335.374 160.042 335.612 159.966 335.804 159.814C335.996 159.66 336.14 159.451 336.237 159.186C336.337 158.918 336.386 158.614 336.386 158.273C336.386 157.935 336.338 157.634 336.241 157.371C336.144 157.108 335.999 156.902 335.807 156.753C335.616 156.604 335.377 156.529 335.09 156.529C334.815 156.529 334.582 156.602 334.39 156.746C334.199 156.891 334.053 157.093 333.954 157.353C333.857 157.614 333.808 157.92 333.808 158.273Z" fill="white"/>
<path d="M363.681 157.364C363.681 158.148 363.534 158.819 363.241 159.377C362.949 159.934 362.552 160.36 362.047 160.656C361.546 160.952 360.976 161.1 360.339 161.1C359.703 161.1 359.132 160.952 358.628 160.656C358.126 160.358 357.728 159.93 357.435 159.374C357.143 158.815 356.998 158.145 356.998 157.364C356.998 156.58 357.143 155.91 357.435 155.354C357.728 154.795 358.126 154.368 358.628 154.072C359.132 153.776 359.703 153.628 360.339 153.628C360.976 153.628 361.546 153.776 362.047 154.072C362.552 154.368 362.949 154.795 363.241 155.354C363.534 155.91 363.681 156.58 363.681 157.364ZM362.356 157.364C362.356 156.812 362.27 156.347 362.097 155.968C361.927 155.587 361.69 155.3 361.387 155.105C361.084 154.909 360.735 154.811 360.339 154.811C359.944 154.811 359.595 154.909 359.292 155.105C358.989 155.3 358.751 155.587 358.578 155.968C358.408 156.347 358.322 156.812 358.322 157.364C358.322 157.916 358.408 158.382 358.578 158.763C358.751 159.142 358.989 159.43 359.292 159.626C359.595 159.82 359.944 159.917 360.339 159.917C360.735 159.917 361.084 159.82 361.387 159.626C361.69 159.43 361.927 159.142 362.097 158.763C362.27 158.382 362.356 157.916 362.356 157.364ZM367.249 161.107C366.704 161.107 366.237 160.987 365.846 160.748C365.458 160.509 365.159 160.179 364.948 159.757C364.74 159.334 364.635 158.846 364.635 158.294C364.635 157.74 364.742 157.252 364.955 156.828C365.168 156.402 365.469 156.07 365.857 155.833C366.248 155.594 366.709 155.475 367.242 155.475C367.685 155.475 368.076 155.556 368.417 155.72C368.761 155.881 369.034 156.109 369.238 156.405C369.441 156.699 369.557 157.042 369.586 157.435H368.357C368.307 157.172 368.189 156.953 368.002 156.778C367.817 156.601 367.57 156.512 367.26 156.512C366.997 156.512 366.766 156.583 366.567 156.725C366.368 156.864 366.213 157.066 366.102 157.328C365.993 157.591 365.939 157.906 365.939 158.273C365.939 158.645 365.993 158.964 366.102 159.232C366.211 159.497 366.364 159.702 366.56 159.846C366.759 159.988 366.992 160.059 367.26 160.059C367.449 160.059 367.618 160.024 367.767 159.953C367.919 159.879 368.046 159.774 368.147 159.637C368.249 159.499 368.319 159.333 368.357 159.136H369.586C369.555 159.522 369.441 159.864 369.245 160.162C369.048 160.458 368.781 160.69 368.442 160.858C368.104 161.024 367.706 161.107 367.249 161.107ZM373.365 155.546V156.54H370.229V155.546H373.365ZM371.003 154.239H372.289V159.36C372.289 159.533 372.315 159.665 372.367 159.757C372.422 159.847 372.493 159.909 372.58 159.942C372.668 159.975 372.765 159.992 372.871 159.992C372.952 159.992 373.025 159.986 373.091 159.974C373.16 159.962 373.212 159.952 373.248 159.942L373.464 160.947C373.396 160.971 373.297 160.997 373.17 161.025C373.044 161.054 372.89 161.07 372.708 161.075C372.386 161.084 372.096 161.036 371.838 160.929C371.58 160.82 371.375 160.652 371.224 160.425C371.074 160.198 371.001 159.914 371.003 159.573V154.239Z" fill="white"/>
<path d="M399.159 153.728V161H397.987L394.56 156.047H394.5V161H393.182V153.728H394.361L397.785 158.685H397.849V153.728H399.159ZM402.917 161.107C402.384 161.107 401.923 160.99 401.532 160.755C401.141 160.521 400.838 160.193 400.623 159.772C400.41 159.35 400.303 158.858 400.303 158.294C400.303 157.731 400.41 157.237 400.623 156.814C400.838 156.39 401.141 156.061 401.532 155.826C401.923 155.592 402.384 155.475 402.917 155.475C403.45 155.475 403.911 155.592 404.302 155.826C404.693 156.061 404.994 156.39 405.207 156.814C405.423 157.237 405.531 157.731 405.531 158.294C405.531 158.858 405.423 159.35 405.207 159.772C404.994 160.193 404.693 160.521 404.302 160.755C403.911 160.99 403.45 161.107 402.917 161.107ZM402.924 160.077C403.213 160.077 403.454 159.998 403.648 159.839C403.843 159.678 403.987 159.463 404.082 159.193C404.179 158.923 404.227 158.622 404.227 158.291C404.227 157.957 404.179 157.655 404.082 157.385C403.987 157.113 403.843 156.896 403.648 156.735C403.454 156.574 403.213 156.494 402.924 156.494C402.628 156.494 402.382 156.574 402.185 156.735C401.991 156.896 401.846 157.113 401.749 157.385C401.654 157.655 401.607 157.957 401.607 158.291C401.607 158.622 401.654 158.923 401.749 159.193C401.846 159.463 401.991 159.678 402.185 159.839C402.382 159.998 402.628 160.077 402.924 160.077ZM411.308 155.546L409.366 161H407.945L406.003 155.546H407.374L408.627 159.598H408.684L409.941 155.546H411.308Z" fill="white"/>
<path d="M433.647 161H431.182V153.728H433.697C434.419 153.728 435.039 153.873 435.557 154.164C436.078 154.453 436.478 154.869 436.758 155.411C437.037 155.953 437.177 156.602 437.177 157.357C437.177 158.114 437.036 158.766 436.754 159.31C436.475 159.855 436.071 160.272 435.543 160.564C435.018 160.855 434.386 161 433.647 161ZM432.5 159.86H433.583C434.09 159.86 434.512 159.768 434.851 159.583C435.189 159.396 435.444 159.118 435.614 158.749C435.785 158.377 435.87 157.913 435.87 157.357C435.87 156.801 435.785 156.339 435.614 155.972C435.444 155.603 435.192 155.327 434.858 155.145C434.526 154.96 434.114 154.868 433.622 154.868H432.5V159.86ZM440.786 161.107C440.24 161.107 439.767 160.993 439.37 160.766C438.974 160.536 438.67 160.212 438.457 159.793C438.244 159.372 438.137 158.876 438.137 158.305C438.137 157.744 438.244 157.252 438.457 156.828C438.672 156.402 438.973 156.07 439.359 155.833C439.745 155.594 440.198 155.475 440.719 155.475C441.055 155.475 441.372 155.529 441.671 155.638C441.971 155.745 442.236 155.91 442.466 156.135C442.698 156.36 442.88 156.647 443.013 156.995C443.146 157.34 443.212 157.752 443.212 158.23V158.625H438.741V157.758H441.98C441.977 157.512 441.924 157.293 441.82 157.101C441.716 156.907 441.57 156.754 441.383 156.643C441.198 156.532 440.983 156.476 440.737 156.476C440.474 156.476 440.243 156.54 440.044 156.668C439.845 156.793 439.69 156.959 439.579 157.165C439.47 157.369 439.415 157.592 439.412 157.836V158.593C439.412 158.91 439.47 159.182 439.586 159.409C439.702 159.634 439.864 159.807 440.073 159.928C440.281 160.046 440.525 160.105 440.804 160.105C440.991 160.105 441.161 160.079 441.312 160.027C441.464 159.973 441.595 159.894 441.706 159.789C441.817 159.685 441.902 159.556 441.958 159.402L443.159 159.537C443.083 159.855 442.938 160.132 442.725 160.368C442.515 160.603 442.245 160.785 441.916 160.915C441.587 161.043 441.21 161.107 440.786 161.107ZM446.679 161.107C446.134 161.107 445.667 160.987 445.276 160.748C444.888 160.509 444.588 160.179 444.378 159.757C444.169 159.334 444.065 158.846 444.065 158.294C444.065 157.74 444.172 157.252 444.385 156.828C444.598 156.402 444.898 156.07 445.287 155.833C445.677 155.594 446.139 155.475 446.672 155.475C447.114 155.475 447.506 155.556 447.847 155.72C448.19 155.881 448.464 156.109 448.667 156.405C448.871 156.699 448.987 157.042 449.015 157.435H447.787C447.737 157.172 447.619 156.953 447.432 156.778C447.247 156.601 446.999 156.512 446.689 156.512C446.427 156.512 446.196 156.583 445.997 156.725C445.798 156.864 445.643 157.066 445.532 157.328C445.423 157.591 445.368 157.906 445.368 158.273C445.368 158.645 445.423 158.964 445.532 159.232C445.641 159.497 445.793 159.702 445.99 159.846C446.189 159.988 446.422 160.059 446.689 160.059C446.879 160.059 447.048 160.024 447.197 159.953C447.349 159.879 447.475 159.774 447.577 159.637C447.679 159.499 447.749 159.333 447.787 159.136H449.015C448.985 159.522 448.871 159.864 448.674 160.162C448.478 160.458 448.21 160.69 447.872 160.858C447.533 161.024 447.136 161.107 446.679 161.107Z" fill="white"/>
<path d="M3.65999 10.0997C3.18651 10.0997 2.76274 10.0109 2.38868 9.83339C2.01463 9.65346 1.71752 9.40725 1.49735 9.09475C1.27955 8.78225 1.16354 8.42477 1.14934 8.02231H2.42775C2.45142 8.3206 2.58045 8.56445 2.81482 8.75384C3.0492 8.94087 3.33092 9.03438 3.65999 9.03438C3.91804 9.03438 4.14768 8.9752 4.34891 8.85682C4.55014 8.73845 4.70876 8.57392 4.82476 8.36322C4.94077 8.15252 4.99759 7.91222 4.99522 7.64234C4.99759 7.36771 4.93958 7.12387 4.82121 6.9108C4.70284 6.69773 4.54067 6.53083 4.33471 6.41009C4.12874 6.28698 3.892 6.22543 3.62448 6.22543C3.40668 6.22306 3.19242 6.26331 2.98172 6.34617C2.77102 6.42903 2.60412 6.53793 2.48101 6.67287L1.29138 6.47756L1.67135 2.72756H5.89011V3.82841H2.76155L2.55204 5.75668H2.59465C2.72959 5.59806 2.92017 5.46667 3.16638 5.36251C3.4126 5.25597 3.68248 5.2027 3.97604 5.2027C4.41638 5.2027 4.80938 5.30687 5.15502 5.5152C5.50066 5.72117 5.77292 6.00526 5.97178 6.36748C6.17064 6.72969 6.27008 7.14399 6.27008 7.61038C6.27008 8.09096 6.15881 8.51947 5.93627 8.89589C5.7161 9.26994 5.40952 9.56468 5.01653 9.78012C4.6259 9.99319 4.17372 10.0997 3.65999 10.0997ZM10.1479 10.1388C9.56316 10.1388 9.06127 9.99082 8.64224 9.69489C8.22557 9.3966 7.90478 8.96691 7.67988 8.40583C7.45734 7.84238 7.34607 7.16412 7.34607 6.37103C7.34844 5.57794 7.46089 4.90323 7.68343 4.34688C7.90833 3.78817 8.22912 3.36203 8.64579 3.06847C9.06482 2.77491 9.56553 2.62813 10.1479 2.62813C10.7303 2.62813 11.231 2.77491 11.65 3.06847C12.0691 3.36203 12.3899 3.78817 12.6124 4.34688C12.8373 4.90559 12.9498 5.58031 12.9498 6.37103C12.9498 7.16648 12.8373 7.84593 12.6124 8.40938C12.3899 8.97046 12.0691 9.39896 11.65 9.69489C11.2334 9.99082 10.7327 10.1388 10.1479 10.1388ZM10.1479 9.02728C10.6025 9.02728 10.9611 8.80356 11.2239 8.35611C11.4891 7.9063 11.6216 7.24461 11.6216 6.37103C11.6216 5.79338 11.5613 5.30805 11.4405 4.91506C11.3198 4.52207 11.1493 4.22614 10.9292 4.02728C10.709 3.82605 10.4486 3.72543 10.1479 3.72543C9.69574 3.72543 9.33826 3.95034 9.07547 4.40015C8.81269 4.84759 8.68011 5.50455 8.67775 6.37103C8.67538 6.95105 8.73338 7.43874 8.85175 7.8341C8.97249 8.22946 9.14295 8.52775 9.36312 8.72898C9.58329 8.92785 9.84489 9.02728 10.1479 9.02728ZM16.8178 10.1388C16.2331 10.1388 15.7312 9.99082 15.3122 9.69489C14.8955 9.3966 14.5747 8.96691 14.3498 8.40583C14.1273 7.84238 14.016 7.16412 14.016 6.37103C14.0184 5.57794 14.1308 4.90323 14.3534 4.34688C14.5783 3.78817 14.899 3.36203 15.3157 3.06847C15.7347 2.77491 16.2355 2.62813 16.8178 2.62813C17.4002 2.62813 17.9009 2.77491 18.32 3.06847C18.739 3.36203 19.0598 3.78817 19.2823 4.34688C19.5072 4.90559 19.6197 5.58031 19.6197 6.37103C19.6197 7.16648 19.5072 7.84593 19.2823 8.40938C19.0598 8.97046 18.739 9.39896 18.32 9.69489C17.9033 9.99082 17.4026 10.1388 16.8178 10.1388ZM16.8178 9.02728C17.2724 9.02728 17.631 8.80356 17.8938 8.35611C18.159 7.9063 18.2916 7.24461 18.2916 6.37103C18.2916 5.79338 18.2312 5.30805 18.1105 4.91506C17.9897 4.52207 17.8193 4.22614 17.5991 4.02728C17.3789 3.82605 17.1185 3.72543 16.8178 3.72543C16.3657 3.72543 16.0082 3.95034 15.7454 4.40015C15.4826 4.84759 15.35 5.50455 15.3477 6.37103C15.3453 6.95105 15.4033 7.43874 15.5217 7.8341C15.6424 8.22946 15.8129 8.52775 16.033 8.72898C16.2532 8.92785 16.5148 9.02728 16.8178 9.02728Z" fill="white"/>
<path d="M1.00019 36.6509V35.6033L4.08613 30.7276H4.95971V32.219H4.42704L2.34962 35.5109V35.5678H6.65715V36.6509H1.00019ZM4.46965 38.0003V36.3313L4.48385 35.8625V30.7276H5.72675V38.0003H4.46965ZM10.4799 38.1388C9.89519 38.1388 9.3933 37.9908 8.97427 37.6949C8.5576 37.3966 8.23681 36.9669 8.01191 36.4058C7.78937 35.8424 7.6781 35.1641 7.6781 34.371C7.68047 33.5779 7.79292 32.9032 8.01546 32.3469C8.24037 31.7882 8.56115 31.362 8.97782 31.0685C9.39685 30.7749 9.89756 30.6281 10.4799 30.6281C11.0623 30.6281 11.563 30.7749 11.9821 31.0685C12.4011 31.362 12.7219 31.7882 12.9444 32.3469C13.1693 32.9056 13.2818 33.5803 13.2818 34.371C13.2818 35.1665 13.1693 35.8459 12.9444 36.4094C12.7219 36.9705 12.4011 37.399 11.9821 37.6949C11.5654 37.9908 11.0647 38.1388 10.4799 38.1388ZM10.4799 37.0273C10.9345 37.0273 11.2932 36.8036 11.5559 36.3561C11.8211 35.9063 11.9537 35.2446 11.9537 34.371C11.9537 33.7934 11.8933 33.3081 11.7726 32.9151C11.6518 32.5221 11.4814 32.2261 11.2612 32.0273C11.041 31.826 10.7806 31.7254 10.4799 31.7254C10.0278 31.7254 9.67029 31.9503 9.40751 32.4001C9.14472 32.8476 9.01215 33.5046 9.00978 34.371C9.00741 34.951 9.06541 35.4387 9.18378 35.8341C9.30452 36.2295 9.47498 36.5278 9.69515 36.729C9.91532 36.9278 10.1769 37.0273 10.4799 37.0273ZM17.1499 38.1388C16.5651 38.1388 16.0632 37.9908 15.6442 37.6949C15.2275 37.3966 14.9067 36.9669 14.6818 36.4058C14.4593 35.8424 14.348 35.1641 14.348 34.371C14.3504 33.5779 14.4628 32.9032 14.6854 32.3469C14.9103 31.7882 15.2311 31.362 15.6477 31.0685C16.0668 30.7749 16.5675 30.6281 17.1499 30.6281C17.7323 30.6281 18.233 30.7749 18.652 31.0685C19.071 31.362 19.3918 31.7882 19.6144 32.3469C19.8393 32.9056 19.9517 33.5803 19.9517 34.371C19.9517 35.1665 19.8393 35.8459 19.6144 36.4094C19.3918 36.9705 19.071 37.399 18.652 37.6949C18.2353 37.9908 17.7346 38.1388 17.1499 38.1388ZM17.1499 37.0273C17.6044 37.0273 17.9631 36.8036 18.2259 36.3561C18.491 35.9063 18.6236 35.2446 18.6236 34.371C18.6236 33.7934 18.5632 33.3081 18.4425 32.9151C18.3217 32.5221 18.1513 32.2261 17.9311 32.0273C17.711 31.826 17.4505 31.7254 17.1499 31.7254C16.6977 31.7254 16.3402 31.9503 16.0774 32.4001C15.8146 32.8476 15.6821 33.5046 15.6797 34.371C15.6773 34.951 15.7353 35.4387 15.8537 35.8341C15.9744 36.2295 16.1449 36.5278 16.3651 36.729C16.5852 36.9278 16.8468 37.0273 17.1499 37.0273Z" fill="white"/>
<path d="M3.74167 66.0997C3.2303 66.0997 2.77576 66.0121 2.37803 65.8369C1.98267 65.6617 1.67017 65.4179 1.44053 65.1054C1.21089 64.7929 1.08897 64.4319 1.07476 64.0223H2.40999C2.42183 64.2188 2.48693 64.3904 2.6053 64.5372C2.72367 64.6816 2.88111 64.7941 3.0776 64.8746C3.2741 64.9551 3.49427 64.9953 3.73812 64.9953C3.99853 64.9953 4.22936 64.9503 4.43059 64.8604C4.63182 64.768 4.78925 64.6402 4.90289 64.4769C5.01653 64.3135 5.07216 64.1253 5.06979 63.9122C5.07216 63.6921 5.01534 63.4979 4.89934 63.3298C4.78333 63.1617 4.61525 63.0304 4.39508 62.9357C4.17727 62.841 3.91449 62.7936 3.60672 62.7936H2.96397V61.778H3.60672C3.86004 61.778 4.08139 61.7342 4.27079 61.6466C4.46255 61.559 4.61288 61.4359 4.72178 61.2773C4.83068 61.1163 4.88395 60.9305 4.88158 60.7197C4.88395 60.5138 4.83778 60.335 4.74309 60.1835C4.65076 60.0296 4.51937 59.9101 4.34891 59.8249C4.18082 59.7396 3.98314 59.697 3.75587 59.697C3.53333 59.697 3.32737 59.7373 3.13797 59.8178C2.94858 59.8983 2.79588 60.0131 2.67988 60.1622C2.56387 60.309 2.50232 60.4842 2.49522 60.6878H1.22746C1.23693 60.2806 1.35412 59.9231 1.57903 59.6153C1.8063 59.3052 2.10933 59.0637 2.48812 58.8909C2.8669 58.7157 3.29186 58.6281 3.76297 58.6281C4.2483 58.6281 4.6697 58.7193 5.02718 58.9016C5.38703 59.0815 5.6652 59.3242 5.8617 59.6296C6.05819 59.9349 6.15644 60.2723 6.15644 60.6416C6.15881 61.0512 6.03807 61.3945 5.79422 61.6715C5.55275 61.9484 5.23551 62.1296 4.84252 62.2148V62.2716C5.35388 62.3426 5.74569 62.532 6.01795 62.8398C6.29257 63.1452 6.42869 63.5251 6.42633 63.9797C6.42633 64.3869 6.31032 64.7515 6.07832 65.0734C5.84868 65.393 5.53144 65.644 5.12661 65.8263C4.72415 66.0086 4.2625 66.0997 3.74167 66.0997ZM10.3335 66.1388C9.74871 66.1388 9.24682 65.9908 8.82778 65.6949C8.41112 65.3966 8.09033 64.9669 7.86542 64.4058C7.64289 63.8424 7.53162 63.1641 7.53162 62.371C7.53399 61.5779 7.64644 60.9032 7.86898 60.3469C8.09388 59.7882 8.41467 59.362 8.83133 59.0685C9.25037 58.7749 9.75108 58.6281 10.3335 58.6281C10.9159 58.6281 11.4166 58.7749 11.8356 59.0685C12.2546 59.362 12.5754 59.7882 12.798 60.3469C13.0229 60.9056 13.1353 61.5803 13.1353 62.371C13.1353 63.1665 13.0229 63.8459 12.798 64.4094C12.5754 64.9705 12.2546 65.399 11.8356 65.6949C11.4189 65.9908 10.9182 66.1388 10.3335 66.1388ZM10.3335 65.0273C10.788 65.0273 11.1467 64.8036 11.4095 64.3561C11.6746 63.9063 11.8072 63.2446 11.8072 62.371C11.8072 61.7934 11.7468 61.3081 11.6261 60.9151C11.5053 60.5221 11.3349 60.2261 11.1147 60.0273C10.8945 59.826 10.6341 59.7254 10.3335 59.7254C9.88129 59.7254 9.52381 59.9503 9.26102 60.4001C8.99824 60.8476 8.86566 61.5046 8.86329 62.371C8.86093 62.951 8.91893 63.4387 9.0373 63.8341C9.15804 64.2295 9.32849 64.5278 9.54866 64.729C9.76883 64.9278 10.0304 65.0273 10.3335 65.0273ZM17.0034 66.1388C16.4186 66.1388 15.9167 65.9908 15.4977 65.6949C15.081 65.3966 14.7603 64.9669 14.5353 64.4058C14.3128 63.8424 14.2015 63.1641 14.2015 62.371C14.2039 61.5779 14.3164 60.9032 14.5389 60.3469C14.7638 59.7882 15.0846 59.362 15.5013 59.0685C15.9203 58.7749 16.421 58.6281 17.0034 58.6281C17.5858 58.6281 18.0865 58.7749 18.5055 59.0685C18.9246 59.362 19.2453 59.7882 19.4679 60.3469C19.6928 60.9056 19.8052 61.5803 19.8052 62.371C19.8052 63.1665 19.6928 63.8459 19.4679 64.4094C19.2453 64.9705 18.9246 65.399 18.5055 65.6949C18.0889 65.9908 17.5881 66.1388 17.0034 66.1388ZM17.0034 65.0273C17.4579 65.0273 17.8166 64.8036 18.0794 64.3561C18.3445 63.9063 18.4771 63.2446 18.4771 62.371C18.4771 61.7934 18.4167 61.3081 18.296 60.9151C18.1753 60.5221 18.0048 60.2261 17.7846 60.0273C17.5645 59.826 17.304 59.7254 17.0034 59.7254C16.5512 59.7254 16.1937 59.9503 15.9309 60.4001C15.6682 60.8476 15.5356 61.5046 15.5332 62.371C15.5308 62.951 15.5889 63.4387 15.7072 63.8341C15.828 64.2295 15.9984 64.5278 16.2186 64.729C16.4388 64.9278 16.7004 65.0273 17.0034 65.0273Z" fill="white"/>
<path d="M1.13158 94.0003V93.0486L3.65644 90.5735C3.89792 90.3296 4.09915 90.113 4.26013 89.9236C4.42112 89.7342 4.54186 89.5507 4.62235 89.3732C4.70284 89.1956 4.74309 89.0062 4.74309 88.805C4.74309 88.5754 4.691 88.3789 4.58684 88.2155C4.48267 88.0498 4.33944 87.9219 4.15715 87.832C3.97486 87.742 3.76771 87.697 3.5357 87.697C3.29659 87.697 3.08707 87.7468 2.90715 87.8462C2.72723 87.9432 2.58755 88.0817 2.48812 88.2617C2.39105 88.4416 2.34252 88.6558 2.34252 88.9044H1.08897C1.08897 88.4428 1.19432 88.0415 1.40502 87.7006C1.61572 87.3597 1.90573 87.0957 2.27505 86.9087C2.64673 86.7217 3.07287 86.6281 3.55346 86.6281C4.04115 86.6281 4.46965 86.7193 4.83897 86.9016C5.20829 87.0839 5.49475 87.3336 5.69834 87.6509C5.90431 87.9681 6.00729 88.3303 6.00729 88.7375C6.00729 89.0098 5.95521 89.2773 5.85104 89.5401C5.74688 89.8029 5.5634 90.0941 5.30062 90.4137C5.0402 90.7333 4.67443 91.1203 4.20332 91.5749L2.94976 92.8497V92.8995H6.11738V94.0003H1.13158ZM10.0307 94.1388C9.44598 94.1388 8.94408 93.9908 8.52505 93.6949C8.10838 93.3966 7.7876 92.9669 7.56269 92.4058C7.34015 91.8424 7.22888 91.1641 7.22888 90.371C7.23125 89.578 7.3437 88.9032 7.56624 88.3469C7.79115 87.7882 8.11193 87.362 8.5286 87.0685C8.94763 86.7749 9.44834 86.6281 10.0307 86.6281C10.6131 86.6281 11.1138 86.7749 11.5329 87.0685C11.9519 87.362 12.2727 87.7882 12.4952 88.3469C12.7201 88.9056 12.8326 89.5803 12.8326 90.371C12.8326 91.1665 12.7201 91.8459 12.4952 92.4094C12.2727 92.9705 11.9519 93.399 11.5329 93.6949C11.1162 93.9908 10.6155 94.1388 10.0307 94.1388ZM10.0307 93.0273C10.4853 93.0273 10.8439 92.8036 11.1067 92.3561C11.3719 91.9063 11.5045 91.2446 11.5045 90.371C11.5045 89.7934 11.4441 89.3081 11.3233 88.9151C11.2026 88.5221 11.0322 88.2262 10.812 88.0273C10.5918 87.8261 10.3314 87.7254 10.0307 87.7254C9.57855 87.7254 9.22107 87.9504 8.95829 88.4002C8.6955 88.8476 8.56293 89.5046 8.56056 90.371C8.55819 90.9511 8.61619 91.4388 8.73457 91.8341C8.8553 92.2295 9.02576 92.5278 9.24593 92.729C9.4661 92.9279 9.7277 93.0273 10.0307 93.0273ZM16.7007 94.1388C16.1159 94.1388 15.614 93.9908 15.195 93.6949C14.7783 93.3966 14.4575 92.9669 14.2326 92.4058C14.0101 91.8424 13.8988 91.1641 13.8988 90.371C13.9012 89.578 14.0136 88.9032 14.2362 88.3469C14.4611 87.7882 14.7819 87.362 15.1985 87.0685C15.6176 86.7749 16.1183 86.6281 16.7007 86.6281C17.283 86.6281 17.7837 86.7749 18.2028 87.0685C18.6218 87.362 18.9426 87.7882 19.1651 88.3469C19.39 88.9056 19.5025 89.5803 19.5025 90.371C19.5025 91.1665 19.39 91.8459 19.1651 92.4094C18.9426 92.9705 18.6218 93.399 18.2028 93.6949C17.7861 93.9908 17.2854 94.1388 16.7007 94.1388ZM16.7007 93.0273C17.1552 93.0273 17.5139 92.8036 17.7766 92.3561C18.0418 91.9063 18.1744 91.2446 18.1744 90.371C18.1744 89.7934 18.114 89.3081 17.9933 88.9151C17.8725 88.5221 17.7021 88.2262 17.4819 88.0273C17.2617 87.8261 17.0013 87.7254 16.7007 87.7254C16.2485 87.7254 15.891 87.9504 15.6282 88.4002C15.3654 88.8476 15.2328 89.5046 15.2305 90.371C15.2281 90.9511 15.2861 91.4388 15.4045 91.8341C15.5252 92.2295 15.6957 92.5278 15.9159 92.729C16.136 92.9279 16.3976 93.0273 16.7007 93.0273Z" fill="white"/>
<path d="M4.58968 114.728V122H3.27221V116.01H3.22959L1.5286 117.096V115.889L3.33613 114.728H4.58968ZM9.12448 122.139C8.53973 122.139 8.03783 121.991 7.6188 121.695C7.20213 121.397 6.88135 120.967 6.65644 120.406C6.4339 119.842 6.32263 119.164 6.32263 118.371C6.325 117.578 6.43745 116.903 6.65999 116.347C6.8849 115.788 7.20568 115.362 7.62235 115.068C8.04138 114.775 8.54209 114.628 9.12448 114.628C9.70687 114.628 10.2076 114.775 10.6266 115.068C11.0456 115.362 11.3664 115.788 11.589 116.347C11.8139 116.906 11.9263 117.58 11.9263 118.371C11.9263 119.166 11.8139 119.846 11.589 120.409C11.3664 120.97 11.0456 121.399 10.6266 121.695C10.2099 121.991 9.70923 122.139 9.12448 122.139ZM9.12448 121.027C9.57903 121.027 9.93769 120.804 10.2005 120.356C10.4656 119.906 10.5982 119.245 10.5982 118.371C10.5982 117.793 10.5378 117.308 10.4171 116.915C10.2964 116.522 10.1259 116.226 9.90573 116.027C9.68556 115.826 9.42514 115.725 9.12448 115.725C8.6723 115.725 8.31482 115.95 8.05204 116.4C7.78925 116.848 7.65668 117.505 7.65431 118.371C7.65194 118.951 7.70994 119.439 7.82832 119.834C7.94905 120.229 8.11951 120.528 8.33968 120.729C8.55985 120.928 8.82145 121.027 9.12448 121.027ZM15.7944 122.139C15.2096 122.139 14.7078 121.991 14.2887 121.695C13.8721 121.397 13.5513 120.967 13.3264 120.406C13.1038 119.842 12.9926 119.164 12.9926 118.371C12.9949 117.578 13.1074 116.903 13.3299 116.347C13.5548 115.788 13.8756 115.362 14.2923 115.068C14.7113 114.775 15.212 114.628 15.7944 114.628C16.3768 114.628 16.8775 114.775 17.2965 115.068C17.7156 115.362 18.0364 115.788 18.2589 116.347C18.4838 116.906 18.5962 117.58 18.5962 118.371C18.5962 119.166 18.4838 119.846 18.2589 120.409C18.0364 120.97 17.7156 121.399 17.2965 121.695C16.8799 121.991 16.3792 122.139 15.7944 122.139ZM15.7944 121.027C16.2489 121.027 16.6076 120.804 16.8704 120.356C17.1355 119.906 17.2681 119.245 17.2681 118.371C17.2681 117.793 17.2078 117.308 17.087 116.915C16.9663 116.522 16.7958 116.226 16.5757 116.027C16.3555 115.826 16.0951 115.725 15.7944 115.725C15.3422 115.725 14.9847 115.95 14.722 116.4C14.4592 116.848 14.3266 117.505 14.3242 118.371C14.3219 118.951 14.3799 119.439 14.4982 119.834C14.619 120.229 14.7894 120.528 15.0096 120.729C15.2298 120.928 15.4914 121.027 15.7944 121.027Z" fill="white"/>
<path d="M10.3198 150.139C9.73504 150.139 9.23314 149.991 8.81411 149.695C8.39744 149.397 8.07666 148.967 7.85175 148.406C7.62921 147.842 7.51795 147.164 7.51795 146.371C7.52031 145.578 7.63277 144.903 7.8553 144.347C8.08021 143.788 8.401 143.362 8.81766 143.068C9.2367 142.775 9.73741 142.628 10.3198 142.628C10.9022 142.628 11.4029 142.775 11.8219 143.068C12.241 143.362 12.5617 143.788 12.7843 144.347C13.0092 144.906 13.1216 145.58 13.1216 146.371C13.1216 147.166 13.0092 147.846 12.7843 148.409C12.5617 148.97 12.241 149.399 11.8219 149.695C11.4053 149.991 10.9045 150.139 10.3198 150.139ZM10.3198 149.027C10.7743 149.027 11.133 148.804 11.3958 148.356C11.6609 147.906 11.7935 147.245 11.7935 146.371C11.7935 145.793 11.7331 145.308 11.6124 144.915C11.4917 144.522 11.3212 144.226 11.101 144.027C10.8809 143.826 10.6205 143.725 10.3198 143.725C9.86761 143.725 9.51013 143.95 9.24735 144.4C8.98457 144.848 8.85199 145.505 8.84962 146.371C8.84725 146.951 8.90526 147.439 9.02363 147.834C9.14437 148.229 9.31482 148.528 9.53499 148.729C9.75516 148.928 10.0168 149.027 10.3198 149.027Z" fill="white"/>
<defs>
<linearGradient id="paint0_linear_1228_14" x1="243.228" y1="-1.00001" x2="242.227" y2="131.5" gradientUnits="userSpaceOnUse">
<stop stop-color="#A9DFD8"/>
<stop offset="1" stop-color="#A9DFD8" stop-opacity="0.01"/>
</linearGradient>
</defs>
</svg>
